# xmcd
#
# Track frame offsets:
#	150
#	19997
#	41821
#	59480
#	78518
#	100747
#	117975
#	136803
#	157179
#	176885
#	197428
#	219477
#
# Disc length: 3159 seconds
#
# Revision: 0
# Processed by: cddbd v1.4PL0 Copyright (c) Steve Scherf et al.
# Submitted via: audiograbber 1.80.04
#
DISCID=ab0c550c
DTITLE=王力宏 - 唯一
DYEAR=1900
DGENRE=
TTITLE0=唯一(國語版)
TTITLE1=愛的就是你
TTITLE2=謝絕推銷你的愛
TTITLE3=安全感
TTITLE4=戒不了你
TTITLE5=不必問別人
TTITLE6=白狐狸
TTITLE7=變壞
TTITLE8=If you knew
TTITLE9=我要
TTITLE10=愛的就是你(浪漫版)
TTITLE11=唯一
EXTD=
EXTT0=
EXTT1=
EXTT2=
EXTT3=
EXTT4=
EXTT5=
EXTT6=
EXTT7=
EXTT8=
EXTT9=
EXTT10=
EXTT11=
PLAYORDER=
